<svg xmlns="http://www.w3.org/2000/svg" width="25.497" height="25.407" viewBox="0 0 25.497 25.407">
  <path id="Icon_ionic-md-settings" data-name="Icon ionic-md-settings" d="M23.967,16.249a7.319,7.319,0,0,0,.06-1.17c0-.41-.06-.761-.06-1.17l2.513-1.931a.537.537,0,0,0,.12-.761L24.206,7.179a.583.583,0,0,0-.718-.234l-2.993,1.17a8.711,8.711,0,0,0-2.035-1.17l-.419-3.1a.641.641,0,0,0-.6-.468H12.654a.641.641,0,0,0-.6.468l-.479,3.1a10.136,10.136,0,0,0-2.035,1.17L6.549,6.944a.561.561,0,0,0-.718.234L3.437,11.217a.707.707,0,0,0,.12.761L6.13,13.908c0,.41-.06.761-.06,1.17s.06.761.06,1.17L3.617,18.18a.538.538,0,0,0-.12.761l2.394,4.038a.583.583,0,0,0,.718.234L9.6,22.042a8.71,8.71,0,0,0,2.035,1.17l.479,3.1a.58.58,0,0,0,.6.468H17.5a.641.641,0,0,0,.6-.468l.479-3.1a10.129,10.129,0,0,0,2.035-1.17l2.993,1.17a.561.561,0,0,0,.718-.234l2.394-4.038a.706.706,0,0,0-.12-.761Zm-8.918,2.926a4.1,4.1,0,1,1,4.19-4.1A4.118,4.118,0,0,1,15.049,19.175Z" transform="translate(-2.33 -2.375)" fill="none" stroke="#000" stroke-width="2"/>
</svg>
