<svg xmlns="http://www.w3.org/2000/svg" width="17.948" height="16.571" viewBox="0 0 17.948 16.571">
  <g id="Icon_ionic-md-thumbs-up" data-name="Icon ionic-md-thumbs-up" transform="translate(-3.375 -4.5)">
    <path id="Path_160" data-name="Path 160" d="M12.89,21.071h7.422a1.583,1.583,0,0,0,1.476-1.01l2.464-5.843a1.652,1.652,0,0,0,.112-.6V11.948a1.9,1.9,0,0,0-1.631-1.925H17.589l.777-3.517.026-.259a1.251,1.251,0,0,0-.358-.876L17.162,4.5,11.725,9.993a1.661,1.661,0,0,0-.475,1.169v8.286A1.627,1.627,0,0,0,12.89,21.071Z" transform="translate(-3.042)"/>
    <path id="Path_161" data-name="Path 161" d="M3.375,15.75H6.137v9.666H3.375Z" transform="translate(0 -4.345)"/>
  </g>
</svg>
