<svg xmlns="http://www.w3.org/2000/svg" width="16.5" height="14.625" viewBox="0 0 16.5 14.625">
  <g transform="translate(15949.75 20943.5)">
    <path id="Icon_awesome-heart" data-name="Icon awesome-heart" d="M13.543,3.145a4.006,4.006,0,0,0-5.467.4L7.5,4.138l-.577-.595a4.006,4.006,0,0,0-5.467-.4,4.207,4.207,0,0,0-.29,6.091l5.669,5.853a.918.918,0,0,0,1.327,0L13.83,9.236a4.2,4.2,0,0,0-.287-6.091Z" transform="translate(-15948.999 -20944.998)" fill="#123c3d"/>
    <path id="Icon_awesome-heart_-_Outline" data-name="Icon awesome-heart - Outline" d="M3.912,1.5A4.974,4.974,0,0,1,7.461,3.022l.038.039.039-.04A4.969,4.969,0,0,1,11.087,1.5,4.477,4.477,0,0,1,14.03,2.574a4.873,4.873,0,0,1,1.714,3.513,4.952,4.952,0,0,1-1.375,3.67L8.7,15.611a1.668,1.668,0,0,1-2.4,0L.627,9.758A4.954,4.954,0,0,1-.745,6.087,4.874,4.874,0,0,1,.969,2.575,4.478,4.478,0,0,1,3.912,1.5ZM7.5,5.215,6.384,4.066A3.467,3.467,0,0,0,3.912,3a3,3,0,0,0-1.971.718A3.388,3.388,0,0,0,.753,6.158,3.448,3.448,0,0,0,1.7,8.714l5.669,5.853a.169.169,0,0,0,.25,0l5.669-5.853a3.446,3.446,0,0,0,.954-2.556,3.387,3.387,0,0,0-1.189-2.443A3,3,0,0,0,11.087,3h0A3.472,3.472,0,0,0,8.615,4.065Z" transform="translate(-15948.999 -20944.998)" fill="#123c3d"/>
  </g>
</svg>
