<svg xmlns="http://www.w3.org/2000/svg" xmlns:xlink="http://www.w3.org/1999/xlink" width="38" height="38.868" viewBox="0 0 38 38.868">
  <defs>
    <filter id="Icon_feather-message-circle" x="2.131" y="4.555" width="34.313" height="34.313" filterUnits="userSpaceOnUse">
      <feOffset dy="3" input="SourceAlpha"/>
      <feGaussianBlur stdDeviation="3" result="blur"/>
      <feFlood flood-opacity="0.161"/>
      <feComposite operator="in" in2="blur"/>
      <feComposite in="SourceGraphic"/>
    </filter>
  </defs>
  <g id="Group_163" data-name="Group 163" transform="translate(-0.384)">
    <circle id="Ellipse_4" data-name="Ellipse 4" cx="19" cy="19" r="19" transform="translate(0.384)" fill="#123c3d"/>
    <g transform="matrix(1, 0, 0, 1, 0.38, 0)" filter="url(#Icon_feather-message-circle)">
      <path id="Icon_feather-message-circle-2" data-name="Icon feather-message-circle" d="M22.313,12.656a8.041,8.041,0,0,1-.864,3.646,8.156,8.156,0,0,1-7.293,4.51,8.041,8.041,0,0,1-3.646-.864L6,20.813l.864-4.51A8.041,8.041,0,0,1,6,12.656a8.156,8.156,0,0,1,4.51-7.293A8.041,8.041,0,0,1,14.156,4.5h.48a8.137,8.137,0,0,1,7.677,7.677Z" transform="translate(5.13 6.06)" fill="#fff"/>
    </g>
  </g>
</svg>
