<svg id="Icon_ionic-ios-notifications" data-name="Icon ionic-ios-notifications" xmlns="http://www.w3.org/2000/svg" width="15.041" height="20.659" viewBox="0 0 15.041 20.659">
  <path id="Path_71" data-name="Path 71" d="M1.892,2.081A1.851,1.851,0,0,0,3.781,0H0A1.852,1.852,0,0,0,1.892,2.081Z" transform="translate(6.009 17.828)" fill="#00e2f2" stroke="#00e2f2" stroke-linejoin="round" stroke-width="1.5"/>
  <path id="Path_72" data-name="Path 72" d="M14.85,13.427c-.724-.92-2.149-1.459-2.149-5.578,0-4.228-1.937-5.927-3.743-6.335-.169-.041-.292-.1-.292-.267V1.115a1.148,1.148,0,0,0-2.294,0v.131c0,.168-.122.227-.292.267-1.81.412-3.743,2.107-3.743,6.335C2.339,11.968.914,12.5.19,13.427a.9.9,0,0,0,.748,1.441H14.107A.9.9,0,0,0,14.85,13.427Z" fill="#00e2f2"/>
</svg>
