<svg xmlns="http://www.w3.org/2000/svg" width="16.977" height="19.16" viewBox="0 0 16.977 19.16">
  <path id="Icon_awesome-tooth" data-name="Icon awesome-tooth" d="M15.312,3.32A4.466,4.466,0,0,0,12.139.087,3.661,3.661,0,0,0,9.064.926a2.3,2.3,0,0,1-.362.189l.977.628a.552.552,0,0,1-.6.928L5.616.443a3.173,3.173,0,0,0-2.3-.356A4.467,4.467,0,0,0,.138,3.32,4.524,4.524,0,0,0,.88,7.128a7.169,7.169,0,0,1,1.252,3.7,36.831,36.831,0,0,0,.722,4.839l.269,1.171a1.049,1.049,0,0,0,2.042.019l1.189-4.774a1.412,1.412,0,0,1,2.743,0l1.189,4.774a1.049,1.049,0,0,0,2.042-.019L12.6,15.67a36.881,36.881,0,0,0,.722-4.839,7.168,7.168,0,0,1,1.252-3.7,4.52,4.52,0,0,0,.743-3.809Z" transform="translate(0.764 0.751)" fill="none" stroke="#123c3d" stroke-width="1.5"/>
</svg>
