<svg id="Layer_1" data-name="Layer 1" xmlns="http://www.w3.org/2000/svg" width="213" height="37.003" viewBox="0 0 213 37.003">
  <path id="Path_97" data-name="Path 97" d="M22.018,32.359H5.046V20.694H19.279a2.529,2.529,0,0,0,1.782-.668,2.058,2.058,0,0,0,.76-1.6,2.11,2.11,0,0,0-.76-1.638,2.621,2.621,0,0,0-1.782-.655H5.046V4.587H22.084A2.621,2.621,0,0,0,23.8,3.932a2.11,2.11,0,0,0,.721-1.612A2.11,2.11,0,0,0,23.8.682,2.621,2.621,0,0,0,22.018,0H2.529A2.621,2.621,0,0,0,.721.682,2.11,2.11,0,0,0,0,2.294V34.626a2.11,2.11,0,0,0,.721,1.612,2.621,2.621,0,0,0,1.809.682H22.018a2.621,2.621,0,0,0,1.782-.682,2.162,2.162,0,0,0,0-3.224A2.621,2.621,0,0,0,22.018,32.359Z" transform="translate(0 0.001)" fill="#123c3d"/>
  <path id="Path_98" data-name="Path 98" d="M62.269,33.743,47.918,1.529A2.254,2.254,0,0,0,46.975.493,2.621,2.621,0,0,0,45.572.1a2.543,2.543,0,0,0-1.4.393,2.359,2.359,0,0,0-.957,1.035L28.8,33.743a2.058,2.058,0,0,0,0,1.756,2.359,2.359,0,0,0,1.376,1.219,2.818,2.818,0,0,0,1.94,0,2.294,2.294,0,0,0,1.311-1.245l3.237-7.248,1.245-2.792L45.572,8.475l7.536,16.933L54.419,28.2l3.237,7.248A2.281,2.281,0,0,0,58.6,36.5a2.621,2.621,0,0,0,1.4.393,2.726,2.726,0,0,0,.931-.17,2.438,2.438,0,0,0,1.4-1.219,2.058,2.058,0,0,0-.066-1.756Z" transform="translate(8.883 0.032)" fill="#123c3d"/>
  <path id="Path_99" data-name="Path 99" d="M85.375,19.146a27.182,27.182,0,0,0-7.641-2.818,22.28,22.28,0,0,1-6.029-2.149,4.246,4.246,0,0,1-1.861-3.8,5.242,5.242,0,0,1,2.162-4.194,8.047,8.047,0,0,1,5.242-1.73,7.942,7.942,0,0,1,4.561,1.311,6.671,6.671,0,0,1,2.621,3.578A2.215,2.215,0,0,0,85.6,10.653a2.621,2.621,0,0,0,1.835.17,2.267,2.267,0,0,0,1.455-1.048,1.966,1.966,0,0,0,.2-1.651,11.048,11.048,0,0,0-4.43-5.845A13.827,13.827,0,0,0,68.574,3.1a9.174,9.174,0,0,0-3.565,7.261,8.231,8.231,0,0,0,3.932,7.352,26.055,26.055,0,0,0,7.562,2.8,22.28,22.28,0,0,1,6.16,2.176,4.364,4.364,0,0,1,1.861,3.932,5.242,5.242,0,0,1-2.162,4.194,7.942,7.942,0,0,1-5.177,1.73,9.279,9.279,0,0,1-4.836-1.311,7.759,7.759,0,0,1-3.159-3.46,2.32,2.32,0,0,0-1.311-1.193,2.5,2.5,0,0,0-1.874,0,2.333,2.333,0,0,0-1.311,1.166,1.979,1.979,0,0,0,0,1.678,12.149,12.149,0,0,0,4.98,5.439,14.417,14.417,0,0,0,7.51,2.1,12.844,12.844,0,0,0,8.611-3.027,9.174,9.174,0,0,0,3.565-7.261A8.375,8.375,0,0,0,85.375,19.146Z" transform="translate(20.036 0.029)" fill="#123c3d"/>
  <path id="Path_100" data-name="Path 100" d="M100.255.682a2.723,2.723,0,0,0-3.6,0,2.11,2.11,0,0,0-.721,1.612V34.626a2.11,2.11,0,0,0,.721,1.612,2.723,2.723,0,0,0,3.6,0,2.11,2.11,0,0,0,.721-1.612V2.294a2.11,2.11,0,0,0-.721-1.612Z" transform="translate(29.796 0.001)" fill="#123c3d"/>
  <path id="Path_101" data-name="Path 101" d="M137.18.682A2.621,2.621,0,0,0,135.4,0H115.923A2.621,2.621,0,0,0,114.1.682a2.11,2.11,0,0,0-.721,1.612V34.626a2.11,2.11,0,0,0,.721,1.612,2.723,2.723,0,0,0,3.6,0,2.11,2.11,0,0,0,.721-1.612V4.587h17.038a2.621,2.621,0,0,0,1.717-.655A2.11,2.11,0,0,0,137.9,2.32,2.11,2.11,0,0,0,137.18.682Z" transform="translate(35.216 0)" fill="#123c3d"/>
  <path id="Path_102" data-name="Path 102" d="M168.965,1.617A2.333,2.333,0,0,0,167.654.306,2.7,2.7,0,0,0,166.58.07a2.412,2.412,0,0,0-.839.144,2.372,2.372,0,0,0-1.468,1.14l-8.978,16.8L146.239,1.368a2.294,2.294,0,0,0-1.429-1.14,2.5,2.5,0,0,0-.865-.144,2.621,2.621,0,0,0-1.075.236A2.215,2.215,0,0,0,141.56,1.63a2.109,2.109,0,0,0-.17.773,1.992,1.992,0,0,0,.275.983l11.048,20.537V34.578a2.123,2.123,0,0,0,.734,1.612,2.621,2.621,0,0,0,3.565,0,2.1,2.1,0,0,0,.76-1.612V23.91L168.821,3.373a2.123,2.123,0,0,0,.262-.983,2.083,2.083,0,0,0-.118-.773Z" transform="translate(43.916 0.022)" fill="#123c3d"/>
  <g id="Ellipse_7" data-name="Ellipse 7" transform="translate(51.224 26.303)" fill="#00e2f2" stroke="#123c3d" stroke-width="1">
    <circle cx="3.209" cy="3.209" r="3.209" stroke="none"/>
    <circle cx="3.209" cy="3.209" r="3.709" fill="none"/>
  </g>
  <g id="Rectangle_139" data-name="Rectangle 139" transform="translate(158.006 16.134)" fill="#00e2f2" stroke="#123c3d" stroke-width="1">
    <rect width="9.541" height="4.587" rx="1.75" stroke="none"/>
    <rect x="-0.5" y="-0.5" width="10.541" height="5.587" rx="2.25" fill="none"/>
  </g>
</svg>
