<svg xmlns="http://www.w3.org/2000/svg" width="25.712" height="25.531" viewBox="0 0 25.712 25.531">
  <g id="Group_912" data-name="Group 912" transform="translate(-64.797 -578.225)">
    <path id="Path_498" data-name="Path 498" d="M90.506,588.592c-.054,1.312,0,2.628-.025,3.941a1.2,1.2,0,0,1-.308.758q-5.149,5.082-10.339,10.123a1.3,1.3,0,0,1-.826.3c-3.764.02-7.528.014-11.292.013a2.6,2.6,0,0,1-2.912-2.9q-.011-7.649,0-15.3c0-.392.013-.785,0-1.176a2.542,2.542,0,0,1,1.622-2.623,22.723,22.723,0,0,1,3.534-1.028c3.584-.823,7.184-1.585,10.77-2.406a2.162,2.162,0,0,1,2.832,2.1c.032,1.249.007,2.5.007,3.822H67.811c-.156,0-.314,0-.471,0a.754.754,0,0,0-.819.75c-.015.479.306.74.786.775.175.013.352,0,.528,0,6.607,0,13.213.035,19.82-.022A2.722,2.722,0,0,1,90.506,588.592Z" transform="translate(0 0)"/>
    <path id="Path_499" data-name="Path 499" d="M217.349,727.96a2.587,2.587,0,0,1-2.456,2.37c-2.033.061-4.069.016-6.292.016,2.962-2.916,5.811-5.723,8.768-8.636C217.368,723.893,217.421,725.93,217.349,727.96Z" transform="translate(-126.886 -126.606)"/>
  </g>
</svg>
