<svg xmlns="http://www.w3.org/2000/svg" width="237" height="45.856" viewBox="0 0 237 45.856">
  <g id="Layer_2" data-name="Layer 2" opacity="0.1">
    <g id="Layer_2-2" data-name="Layer 2" transform="translate(0 0)">
      <g id="Layer_1" data-name="Layer 1">
        <path id="Path_389" data-name="Path 389" d="M27.286,40.1H6.253V25.646H23.892a3.135,3.135,0,0,0,2.209-.828,2.55,2.55,0,0,0,.942-1.981,2.615,2.615,0,0,0-.942-2.03,3.248,3.248,0,0,0-2.209-.812H6.253V5.685H27.367A3.248,3.248,0,0,0,29.5,4.873a2.615,2.615,0,0,0,.893-2A2.615,2.615,0,0,0,29.5.845,3.248,3.248,0,0,0,27.286,0H3.135A3.248,3.248,0,0,0,.893.845a2.615,2.615,0,0,0-.893,2V42.911a2.615,2.615,0,0,0,.893,2,3.248,3.248,0,0,0,2.241.845H27.286a3.248,3.248,0,0,0,2.209-.845,2.68,2.68,0,0,0,0-4A3.248,3.248,0,0,0,27.286,40.1Z" transform="translate(0 0.001)" fill="#123c3d"/>
        <path id="Path_390" data-name="Path 390" d="M70.325,41.793,52.54,1.871A2.794,2.794,0,0,0,51.371.587,3.248,3.248,0,0,0,49.633.1,3.151,3.151,0,0,0,47.9.587,2.923,2.923,0,0,0,46.71,1.871L28.844,41.793a2.55,2.55,0,0,0,0,2.176,2.924,2.924,0,0,0,1.705,1.51,3.492,3.492,0,0,0,2.4,0,2.842,2.842,0,0,0,1.624-1.543l4.012-8.982L40.132,31.5l9.5-21.017,9.339,20.984L60.6,34.922,64.608,43.9a2.826,2.826,0,0,0,1.169,1.3,3.248,3.248,0,0,0,1.738.487,3.378,3.378,0,0,0,1.153-.211,3.021,3.021,0,0,0,1.738-1.51,2.55,2.55,0,0,0-.081-2.176Z" transform="translate(17.851 0.063)" fill="#123c3d"/>
        <path id="Path_391" data-name="Path 391" d="M90.368,23.705A33.685,33.685,0,0,0,80.9,20.213a27.61,27.61,0,0,1-7.471-2.664,5.262,5.262,0,0,1-2.306-4.71,6.5,6.5,0,0,1,2.68-5.2A9.972,9.972,0,0,1,80.3,5.5a9.842,9.842,0,0,1,5.652,1.624A8.267,8.267,0,0,1,89.2,11.556a2.745,2.745,0,0,0,1.446,1.624,3.248,3.248,0,0,0,2.274.211,2.81,2.81,0,0,0,1.8-1.3,2.436,2.436,0,0,0,.244-2.046A13.692,13.692,0,0,0,89.475,2.8,17.135,17.135,0,0,0,69.546,3.825a11.369,11.369,0,0,0-4.418,9A10.2,10.2,0,0,0,70,21.935a32.289,32.289,0,0,0,9.371,3.476,27.611,27.611,0,0,1,7.634,2.7,5.409,5.409,0,0,1,2.306,4.873,6.5,6.5,0,0,1-2.68,5.2,9.842,9.842,0,0,1-6.415,2.144A11.5,11.5,0,0,1,74.224,38.7a9.615,9.615,0,0,1-3.914-4.288,2.875,2.875,0,0,0-1.624-1.478,3.1,3.1,0,0,0-2.323,0,2.891,2.891,0,0,0-1.624,1.446,2.452,2.452,0,0,0,0,2.079,15.056,15.056,0,0,0,6.172,6.74,17.866,17.866,0,0,0,9.306,2.6,15.917,15.917,0,0,0,10.671-3.752,11.369,11.369,0,0,0,4.418-9,10.378,10.378,0,0,0-4.937-9.339Z" transform="translate(40.264 0.057)" fill="#123c3d"/>
        <path id="Path_392" data-name="Path 392" d="M101.29.845a3.375,3.375,0,0,0-4.466,0,2.615,2.615,0,0,0-.893,2V42.911a2.615,2.615,0,0,0,.893,2,3.375,3.375,0,0,0,4.466,0,2.615,2.615,0,0,0,.893-2V2.842a2.615,2.615,0,0,0-.893-2Z" transform="translate(59.877 0.001)" fill="#123c3d"/>
        <path id="Path_393" data-name="Path 393" d="M147.462.845a3.418,3.418,0,0,0-4.5,0,2.615,2.615,0,0,0-.893,2V42.911a2.615,2.615,0,0,0,.893,2,3.375,3.375,0,0,0,4.467,0,2.615,2.615,0,0,0,.893-2V2.843a2.615,2.615,0,0,0-.861-2Z" transform="translate(88.676 0)" fill="#123c3d"/>
        <path id="Path_394" data-name="Path 394" d="M142.875.845A3.248,3.248,0,0,0,140.666,0H116.531a3.248,3.248,0,0,0-2.258.845,2.615,2.615,0,0,0-.893,2V42.911a2.615,2.615,0,0,0,.893,2,3.375,3.375,0,0,0,4.466,0,2.615,2.615,0,0,0,.893-2V5.685h21.114a3.248,3.248,0,0,0,2.128-.812,2.615,2.615,0,0,0,.893-2,2.615,2.615,0,0,0-.893-2.03Z" transform="translate(70.769 0)" fill="#123c3d"/>
        <circle id="Ellipse_15" data-name="Ellipse 15" cx="4.596" cy="4.596" r="4.596" transform="translate(62.872 33.15)" fill="#123c3d"/>
        <rect id="Rectangle_393" data-name="Rectangle 393" width="11.824" height="6.497" rx="2" transform="translate(195.81 21.212)" fill="#123c3d"/>
      </g>
    </g>
  </g>
</svg>
