<svg xmlns="http://www.w3.org/2000/svg" width="21.629" height="21.477" viewBox="0 0 21.629 21.477">
  <g id="Group_912" data-name="Group 912" transform="translate(-64.797 -578.225)">
    <path id="Path_498" data-name="Path 498" d="M86.423,586.945c-.046,1.1,0,2.211-.021,3.315a1.013,1.013,0,0,1-.259.637q-4.331,4.275-8.7,8.515a1.091,1.091,0,0,1-.695.253c-3.167.017-6.332.012-9.5.011a2.187,2.187,0,0,1-2.449-2.436q-.009-6.435,0-12.867c0-.33.011-.66,0-.99a2.138,2.138,0,0,1,1.365-2.207,19.111,19.111,0,0,1,2.973-.865c3.015-.693,6.043-1.333,9.059-2.024a1.819,1.819,0,0,1,2.382,1.762c.027,1.051.006,2.1.006,3.215H67.333c-.132,0-.264,0-.4,0a.634.634,0,0,0-.689.631c-.013.4.257.622.661.652.147.011.3,0,.444,0,5.557,0,11.115.03,16.672-.019A2.289,2.289,0,0,1,86.423,586.945Z" transform="translate(0 0)" fill="#123c3d"/>
    <path id="Path_499" data-name="Path 499" d="M215.959,726.967a2.176,2.176,0,0,1-2.066,1.993c-1.71.051-3.423.014-5.293.014,2.492-2.453,4.888-4.814,7.375-7.264C215.975,723.547,216.02,725.26,215.959,726.967Z" transform="translate(-129.573 -129.287)" fill="#123c3d"/>
  </g>
</svg>
