<svg xmlns="http://www.w3.org/2000/svg" width="25" height="17.857" viewBox="0 0 25 17.857">
  <g id="Icon_ionic-ios-card" data-name="Icon ionic-ios-card" transform="translate(-2.25 -6.75)">
    <path id="Path_496" data-name="Path 496" d="M27.25,8.536A1.791,1.791,0,0,0,25.464,6.75H4.036A1.791,1.791,0,0,0,2.25,8.536v2.679h25Z" transform="translate(0 0)" fill="#123c3d"/>
    <path id="Path_497" data-name="Path 497" d="M2.25,24.679a1.791,1.791,0,0,0,1.786,1.786H25.464a1.791,1.791,0,0,0,1.786-1.786V15.75h-25ZM10.174,22h9.152a.784.784,0,0,1,.781.781h0a.784.784,0,0,1-.781.781H10.174a.784.784,0,0,1-.781-.781h0A.784.784,0,0,1,10.174,22ZM6.156,22h.67a.784.784,0,0,1,.781.781h0a.784.784,0,0,1-.781.781h-.67a.784.784,0,0,1-.781-.781h0A.784.784,0,0,1,6.156,22Z" transform="translate(0 -1.857)" fill="#123c3d"/>
  </g>
</svg>
