<svg xmlns="http://www.w3.org/2000/svg" width="35.863" height="30" viewBox="0 0 35.863 30">
  <g id="Group_890" data-name="Group 890" transform="translate(-348 -379.384)">
    <path id="Path_494" data-name="Path 494" d="M544.454,381.325a2.913,2.913,0,0,0-2.7-1.933q-5.794-.02-11.589,0a.438.438,0,0,0-.33.21,72.156,72.156,0,0,0-4.127,11.906c-.136.588-.231,1.187-.355,1.834H530.3a22.219,22.219,0,0,0-1.835,7.684c.735-.157,1.427-.283,2.108-.457a13.34,13.34,0,0,0,3.2-1.3,1.5,1.5,0,0,1,1.278-.148,1.493,1.493,0,0,1,.265,2.7,14.453,14.453,0,0,1-3.559,1.516c-1.055.283-2.131.488-3.281.745.122.727.218,1.522.4,2.3.17.735.43,1.45.644,2.176.076.254.135.513.218.825h11.638a3,3,0,0,0,3.244-2.478c.006-.021.028-.036.043-.052V381.914C544.585,381.718,544.526,381.519,544.454,381.325Zm-8.618,8.154a1.254,1.254,0,0,1-1.283,1.18,1.275,1.275,0,0,1-1.257-1.25c0-.128,0-.256,0-.385,0-.21,0-.42,0-.63,0-.194,0-.389,0-.584,0-.12,0-.241.006-.361a1.266,1.266,0,0,1,1.238-1.227,1.242,1.242,0,0,1,1.3,1.158C535.866,388.078,535.866,388.78,535.835,389.479Z" transform="translate(-160.787)" fill="#123c3d"/>
    <path id="Path_495" data-name="Path 495" d="M364.741,404.368c-.021-.256-.118-.324-.358-.346a17.193,17.193,0,0,1-6.656-1.981,1.488,1.488,0,0,1,.3-2.783,1.529,1.529,0,0,1,1.116.155,14.386,14.386,0,0,0,4.627,1.523c.253.038.508.067.763.1a.128.128,0,0,0,.06-.007c.222-1.559.443-3.1.667-4.668h-3.776c0-.573-.011-1.118,0-1.662a25.673,25.673,0,0,1,1.191-6.413,80.648,80.648,0,0,1,3.005-8.423c.057-.139.111-.278.188-.47H351.286a2.993,2.993,0,0,0-3.244,2.477c0,.021-.027.035-.042.053v24.938a.579.579,0,0,1,.06.12,2.967,2.967,0,0,0,3.018,2.408q7.25.008,14.5,0h.25c-.044-.157-.072-.287-.115-.412A18.8,18.8,0,0,1,364.741,404.368Zm-7.633-16.856a1.282,1.282,0,0,1,2.562-.094c.026.336,0,.676,0,1.015h0c0,.3.011.607,0,.911a1.285,1.285,0,1,1-2.569-.046C357.1,388.7,357.1,388.107,357.108,387.512Z" transform="translate(0 -0.006)" fill="#123c3d"/>
  </g>
</svg>
